PathFileType	4	(X/Y/Z)	/Users/itak/Documents/Research/Walk-IL/dataset/trc/00231_00009.trc
DataRate	CameraRate	NumFrames	NumMarkers	Units	OrigDataRate	OrigDataStartFrame	OrigNumFrames
100.000000	100.000000	4	53	mm	100.000000	624	833
Frame#	Time	RPSI			LPSI			L3			STRN			T10			C7			CLAV			RBAK			LBAK			LSHO			LUPA			LAEL			LAOL			LWTS			LWPS			LFRA			LIFD			LHPS			LHTS			RSHO			RUPA			RAEL			RAOL			RWTS			RWPS			RFRA			RIFD			RHTS			RHPS			RBHD			LFHD			RFHD			LBHD			LHIP			RHIP			RASI			LASI			LKNE			LTHI			LANK			LTIP			LTOE			LMT1			LMT5			LHEE			RKNE			RTHI			RANK			RTIP			RTOE			RMT1			RMT5			RHEE			
		X1	Y1	Z1	X2	Y2	Z2	X3	Y3	Z3	X4	Y4	Z4	X5	Y5	Z5	X6	Y6	Z6	X7	Y7	Z7	X8	Y8	Z8	X9	Y9	Z9	X10	Y10	Z10	X11	Y11	Z11	X12	Y12	Z12	X13	Y13	Z13	X14	Y14	Z14	X15	Y15	Z15	X16	Y16	Z16	X17	Y17	Z17	X18	Y18	Z18	X19	Y19	Z19	X20	Y20	Z20	X21	Y21	Z21	X22	Y22	Z22	X23	Y23	Z23	X24	Y24	Z24	X25	Y25	Z25	X26	Y26	Z26	X27	Y27	Z27	X28	Y28	Z28	X29	Y29	Z29	X30	Y30	Z30	X31	Y31	Z31	X32	Y32	Z32	X33	Y33	Z33	X34	Y34	Z34	X35	Y35	Z35	X36	Y36	Z36	X37	Y37	Z37	X38	Y38	Z38	X39	Y39	Z39	X40	Y40	Z40	X41	Y41	Z41	X42	Y42	Z42	X43	Y43	Z43	X44	Y44	Z44	X45	Y45	Z45	X46	Y46	Z46	X47	Y47	Z47	X48	Y48	Z48	X49	Y49	Z49	X50	Y50	Z50	X51	Y51	Z51	X52	Y52	Z52	X53	Y53	Z53	

625	6.24	-629.3966674804688	1043.626953125	305.0851745605469	-543.54541015625	1043.966552734375	221.5950469970703	-579.6256713867188	1134.442016601562	262.2579650878906	-388.7772827148438	1311.249145507812	440.8065795898438	-586.427490234375	1260.711547851562	270.9928894042969	-533.9964599609375	1518.312866210938	324.1730346679688	-408.1758728027344	1431.245727539062	432.277099609375	-643.0734252929688	1382.148193359375	330.9294738769531	-473.3648376464844	1486.298461914062	227.2330169677734	-368.9026489257812	1486.189819335938	244.9649810791016	-340.146728515625	1375.203247070312	154.0088043212891	-320.8057556152344	1167.371948242188	116.40234375	-407.5625	1152.926391601562	111.6875762939453	-280.2216796875	925.6199340820312	195.5695953369141	-255.4650115966797	915.787109375	114.672607421875	-295.5465393066406	1060.08251953125	107.7692108154297	-274.4830322265625	731.4774169921875	172.9077453613281	-244.9143524169922	826.4891967773438	119.818489074707	-241.8385009765625	823.916748046875	188.1973724365234	-596.5267944335938	1476.462768554688	493.0720520019531	-655.1119384765625	1415.513549804688	535.708740234375	-707.7935791015625	1138.600830078125	572.7212524414062	-679.7022705078125	1123.04541015625	482.5165100097656	-579.2455444335938	928.239990234375	647.8533935546875	-662.0018310546875	915.9688110351562	663.5286254882812	-697.2022094726562	1072.150390625	605.1019897460938	-566.994873046875	736.9395141601562	674.90380859375	-561.5224609375	812.4488525390625	699.6410522460938	-633.9267578125	813.3067626953125	702.4740600585938	-529.7197875976562	1670.776977539062	401.0104675292969	-311.8012390136719	1691.643798828125	461.4127807617188	-376.3218688964844	1688.787963867188	537.5601196289062	-409.2365417480469	1674.92041015625	329.2381591796875	-371.4194030761719	984.5443115234375	200.3137359619141	-641.1400756835938	1002.146423339844	448.5845031738281	-546.7991943359375	1040.899169921875	496.6365356445312	-339.6708984375	1025.850463867188	306.9440002441406	-266.2484436035156	531.904541015625	370.8588562011719	-283.6631774902344	662.0938110351562	300.5210571289062	-281.004150390625	45.61203765869141	417.5914916992188	-275.3002624511719	299.436767578125	378.0355529785156	-144.3583984375	112.1294403076172	570.6815185546875	-219.5332794189453	87.69863128662109	571.7305908203125	-169.2825164794922	72.76382446289062	471.5174865722656	-360.6033325195312	43.97810745239258	425.0447082519531	-633.7782592773438	512.91455078125	402.3025817871094	-620.8470458984375	776.2518920898438	478.5160522460938	-700.1732788085938	36.34926986694336	272.8409729003906	-631.3882446289062	395.5182495117188	383.6460876464844	-561.9127197265625	43.68593978881836	439.5638732910156	-551.0501708984375	43.38022232055664	371.0597229003906	-674.2047119140625	33.74728012084961	381.2250061035156	-677.72705078125	40.38810348510742	190.9151000976562	
626	6.25	-626.2523193359375	1043.01708984375	309.8871765136719	-540.8035278320312	1043.27880859375	226.0644378662109	-576.7025146484375	1133.61328125	266.8624267578125	-384.6967163085938	1310.297241210938	444.1056213378906	-583.4146728515625	1259.868774414062	275.7139892578125	-530.5685424804688	1517.44140625	328.3894653320312	-403.9997253417969	1430.310668945312	435.6529846191406	-639.684326171875	1381.4013671875	335.8736267089844	-470.5513610839844	1485.356689453125	231.0782775878906	-365.97509765625	1485.161987304688	248.0152435302734	-338.145751953125	1373.99169921875	156.9603576660156	-320.1250915527344	1165.99853515625	119.3252334594727	-406.9573364257812	1151.920776367188	115.4874725341797	-280.0604858398438	924.0169067382812	198.1288299560547	-255.9827880859375	914.0744018554688	117.0362243652344	-295.4569091796875	1058.573486328125	110.4830322265625	-275.7424926757812	729.7906494140625	175.4020233154297	-245.9847869873047	824.6570434570312	122.0553359985352	-242.2755889892578	822.092041015625	190.4147491455078	-591.9547729492188	1475.592041015625	497.7596740722656	-650.1724243164062	1414.490600585938	540.7264404296875	-702.18359375	1137.422241210938	577.712158203125	-674.920654296875	1122.125854492188	487.1726379394531	-572.4226684570312	927.1742553710938	651.0391845703125	-654.9078369140625	914.63720703125	667.51220703125	-691.1438598632812	1070.919067382812	609.8369140625	-559.4594116210938	735.8037719726562	677.422607421875	-553.8934936523438	811.2843017578125	702.2781982421875	-626.2188720703125	811.93798828125	705.9686279296875	-525.8567504882812	1669.91845703125	405.0607299804688	-307.5826110839844	1690.9150390625	464.0764465332031	-371.6087036132812	1688.063232421875	540.6185302734375	-405.8604125976562	1674.065307617188	332.514404296875	-368.8020629882812	983.506103515625	204.0371398925781	-637.4718017578125	1001.400756835938	453.4140319824219	-542.9066772460938	1040.115356445312	501.0575866699219	-336.5878601074219	1024.799560546875	310.4603576660156	-264.5645141601562	530.3035888671875	372.6846313476562	-281.9341430664062	660.3765869140625	302.3742980957031	-270.867431640625	45.03706359863281	426.9826354980469	-270.0365600585938	298.2559204101562	383.2351379394531	-133.7327880859375	115.9037933349609	577.7315063476562	-208.5948638916016	90.41899871826172	579.8909301757812	-159.0897979736328	74.75323486328125	479.4058837890625	-350.3681030273438	42.26092910766602	435.2385559082031	-632.1858520507812	512.678955078125	404.4470825195312	-617.9208374023438	775.4710083007812	482.1681518554688	-700.2053833007812	36.53861236572266	272.9576416015625	-630.3323974609375	395.3435363769531	385.1580200195312	-561.9570922851562	43.68781280517578	439.5104675292969	-551.078369140625	43.5406494140625	371.03662109375	-674.2919921875	33.68418121337891	381.266357421875	-677.9346923828125	40.9400634765625	191.0291290283203	
627	6.26	-622.9208984375	1042.338256835938	314.6414184570312	-537.9119873046875	1042.508422851562	230.4770202636719	-573.5897216796875	1132.711059570312	271.4200439453125	-380.5344543457031	1309.3125	447.4068603515625	-580.2198486328125	1258.941528320312	280.3580322265625	-526.9738159179688	1516.509033203125	332.5119018554688	-399.7546081542969	1429.340576171875	438.9917297363281	-636.167236328125	1380.587158203125	340.6728210449219	-467.5856323242188	1484.338134765625	234.8382720947266	-362.8890686035156	1484.060424804688	251.0496826171875	-335.92919921875	1372.704345703125	159.9340515136719	-319.214599609375	1164.534423828125	122.3395614624023	-406.108642578125	1150.81982421875	119.3436737060547	-279.716796875	922.3323974609375	200.8306274414062	-256.2884826660156	912.27392578125	119.5658264160156	-295.1336364746094	1056.981689453125	113.3297500610352	-276.85546875	728.0324096679688	178.0762176513672	-246.8545684814453	822.7494506835938	124.4831848144531	-242.5696716308594	820.1856689453125	192.8047180175781	-587.334716796875	1474.69775390625	502.3048400878906	-645.203369140625	1413.450317382812	545.590576171875	-696.5518798828125	1136.2236328125	582.5440673828125	-670.1407470703125	1121.19384765625	491.6846313476562	-565.5716552734375	926.107177734375	654.02490234375	-647.7667846679688	913.3139038085938	671.3238525390625	-685.0551147460938	1069.66259765625	614.4046020507812	-551.8666381835938	734.673583984375	679.7131958007812	-546.1927490234375	810.1209716796875	704.6776733398438	-618.4214477539062	810.5618896484375	709.2628784179688	-521.947998046875	1669.000854492188	408.9625854492188	-303.3466796875	1690.182006835938	466.6762390136719	-366.9048156738281	1687.341430664062	543.5927734375	-402.3993835449219	1673.160766601562	335.698486328125	-365.9353942871094	982.369873046875	207.8763732910156	-633.707763671875	1000.617919921875	458.2035217285156	-538.8977661132812	1039.31005859375	505.4703063964844	-333.3368225097656	1023.675659179688	314.0887145996094	-262.8641357421875	528.5628051757812	374.5727844238281	-280.1480712890625	658.5315551757812	304.3321838378906	-261.2307434082031	44.50682830810547	435.6390686035156	-264.9554443359375	297.0507507324219	388.1313171386719	-123.7178573608398	119.4262847900391	584.1388549804688	-198.2577819824219	92.93768310546875	587.370849609375	-149.4276885986328	76.64847564697266	486.6210327148438	-340.5949401855469	40.63245391845703	444.6508178710938	-630.4515380859375	512.4278564453125	406.6996154785156	-614.9111938476562	774.669677734375	485.8584289550781	-700.2113037109375	36.76957321166992	273.0672912597656	-629.16064453125	395.1496887207031	386.769775390625	-561.9959106445312	43.69189453125	439.4707641601562	-551.1056518554688	43.68975448608398	371.0294189453125	-674.3670043945312	33.63275527954102	381.3084716796875	-678.1226196289062	41.56466293334961	191.1380462646484	
628	6.27	-619.40234375	1041.586669921875	319.3558044433594	-534.8848266601562	1041.643188476562	234.8238830566406	-570.2894287109375	1131.733764648438	275.9331359863281	-376.2923889160156	1308.298583984375	450.7079467773438	-576.8790893554688	1257.9287109375	284.8988342285156	-523.20751953125	1515.518920898438	336.540283203125	-395.4462890625	1428.337036132812	442.2919311523438	-632.5186157226562	1379.707763671875	345.3257751464844	-464.4644165039062	1483.244995117188	238.5130767822266	-359.6442565917969	1482.887084960938	254.0640869140625	-333.5028991699219	1371.340942382812	162.92236328125	-318.0544128417969	1162.9814453125	125.4409027099609	-405.0004272460938	1149.622436523438	123.2419281005859	-279.1617126464844	920.5712280273438	203.6817321777344	-256.3504638671875	910.39306640625	122.2640609741211	-294.5483703613281	1055.312255859375	116.3084030151367	-277.8102111816406	726.2083129882812	180.9171295166016	-247.5022125244141	820.7777099609375	127.0949096679688	-242.6967620849609	818.1918334960938	195.3685455322266	-582.6663818359375	1473.779663085938	506.7064819335938	-640.2044067382812	1412.396118164062	550.301025390625	-690.9049682617188	1135.010864257812	587.2256469726562	-665.3668212890625	1120.253784179688	496.0587158203125	-558.7030639648438	925.0431518554688	656.8271484375	-640.5963134765625	912.0100708007812	674.98046875	-678.9393310546875	1068.384765625	618.8093872070312	-544.2214965820312	733.5592651367188	681.7943115234375	-538.4286499023438	808.9656982421875	706.8626098632812	-610.5438842773438	809.181884765625	712.3639526367188	-517.9942626953125	1668.0244140625	412.7183532714844	-299.0879211425781	1689.445068359375	469.208251953125	-362.2041625976562	1686.62158203125	546.4845581054688	-398.8460693359375	1672.210083007812	338.7926940917969	-362.8213500976562	981.13232421875	211.8280639648438	-629.83740234375	999.8040771484375	462.9652404785156	-534.7479248046875	1038.486694335938	509.8816833496094	-329.915771484375	1022.481018066406	317.8234558105469	-261.1294250488281	526.697021484375	376.5382690429688	-278.2845153808594	656.5858764648438	306.4245910644531	-252.1645050048828	43.95490646362305	443.5428771972656	-260.0700988769531	295.7968139648438	392.7229919433594	-114.3935165405273	122.6119537353516	589.92724609375	-188.5983428955078	95.17610168457031	594.1801147460938	-140.3621520996094	78.36021423339844	493.1751403808594	-331.3706359863281	39.03498840332031	453.2418212890625	-628.5792846679688	512.1685180664062	409.0620727539062	-611.8089599609375	773.8564453125	489.5914611816406	-700.1961059570312	37.04551315307617	273.1738586425781	-627.8851928710938	394.9486389160156	388.4795837402344	-562.02978515625	43.6968994140625	439.4454345703125	-551.1354370117188	43.82223510742188	371.0445251464844	-674.4310302734375	33.58966445922852	381.3541259765625	-678.3026123046875	42.27740097045898	191.2451324462891	
